<svg width="9" height="7" viewBox="0 0 9 7" fill="none" xmlns="http://www.w3.org/2000/svg">
<path d="M1.5 0C1.10218 0 0.720644 0.1475 0.43934 0.41005C0.158035 0.672601 0 1.0287 0 1.4V1.5407L4.5 3.8024L9 1.5414V1.4C9 1.0287 8.84196 0.672601 8.56066 0.41005C8.27936 0.1475 7.89782 0 7.5 0H1.5ZM9 2.3359L4.67775 4.508C4.62312 4.53545 4.56204 4.54982 4.5 4.54982C4.43796 4.54982 4.37688 4.53545 4.32225 4.508L0 2.3359V5.6C0 5.9713 0.158035 6.3274 0.43934 6.58995C0.720644 6.8525 1.10218 7 1.5 7H7.5C7.89782 7 8.27936 6.8525 8.56066 6.58995C8.84196 6.3274 9 5.9713 9 5.6V2.3359Z" fill="currentColor"/>
</svg>
