<svg width="9" height="10" viewBox="0 0 9 10" fill="none" xmlns="http://www.w3.org/2000/svg">
<path d="M4.5 0C5.69347 0 6.83807 0.470181 7.68198 1.30711C8.52589 2.14404 9 3.27915 9 4.46275C9 5.98703 8.162 7.23461 7.279 8.12964C6.83784 8.57198 6.35646 8.97301 5.841 9.32764L5.628 9.47144L5.528 9.53739L5.3395 9.6564L5.1715 9.75805L4.9635 9.87805C4.82232 9.95797 4.66256 10 4.5 10C4.33744 10 4.17768 9.95797 4.0365 9.87805L3.8285 9.75805L3.5685 9.59937L3.4725 9.53739L3.2675 9.40202C2.71142 9.0289 2.19345 8.60274 1.721 8.12964C0.838 7.23412 0 5.98703 0 4.46275C0 3.27915 0.474106 2.14404 1.31802 1.30711C2.16193 0.470181 3.30653 0 4.5 0ZM4.5 2.97517C4.30302 2.97517 4.10796 3.01364 3.92597 3.0884C3.74399 3.16316 3.57863 3.27273 3.43934 3.41087C3.30005 3.549 3.18956 3.71299 3.11418 3.89348C3.0388 4.07396 3 4.2674 3 4.46275C3 4.6581 3.0388 4.85154 3.11418 5.03202C3.18956 5.2125 3.30005 5.37649 3.43934 5.51463C3.57863 5.65276 3.74399 5.76234 3.92597 5.8371C4.10796 5.91185 4.30302 5.95033 4.5 5.95033C4.89782 5.95033 5.27936 5.79361 5.56066 5.51463C5.84196 5.23565 6 4.85728 6 4.46275C6 4.06822 5.84196 3.68984 5.56066 3.41087C5.27936 3.13189 4.89782 2.97517 4.5 2.97517Z" fill="currentColor"/>
</svg>
