<svg width="16" height="13" viewBox="0 0 16 13" fill="none" xmlns="http://www.w3.org/2000/svg">
<path fill-rule="evenodd" clip-rule="evenodd" d="M14.3427 0.088937C14.5394 0.010188 14.7547 -0.0169719 14.9662 0.0102836C15.1777 0.0375392 15.3777 0.118214 15.5453 0.243911C15.7129 0.369609 15.842 0.535733 15.9192 0.724994C15.9964 0.914254 16.0188 1.11973 15.9842 1.32004L14.1787 11.736C14.0035 12.7407 12.8445 13.3169 11.8757 12.8164C11.0653 12.3977 9.8616 11.7526 8.77895 11.0795C8.23763 10.7426 6.57942 9.66368 6.78321 8.89594C6.95834 8.2395 9.74458 5.77275 11.3367 4.30618C11.9616 3.73 11.6766 3.39762 10.9387 3.92761C9.10614 5.24352 6.16387 7.24463 5.19107 7.80794C4.33291 8.30462 3.88552 8.38942 3.35056 8.30462C2.37458 8.15016 1.46945 7.91091 0.730701 7.61941C-0.267568 7.2257 -0.219008 5.9204 0.729905 5.54031L14.3427 0.088937Z" fill="currentColor"/>
</svg>
