<svg width="10" height="10" viewBox="0 0 10 10" fill="none" xmlns="http://www.w3.org/2000/svg">
<path fill-rule="evenodd" clip-rule="evenodd" d="M0 5C0 2.2385 2.2385 0 5 0C7.7615 0 10 2.2385 10 5C10 7.7615 7.7615 10 5 10C2.2385 10 0 7.7615 0 5ZM5 3C5 2.86739 4.94732 2.74021 4.85355 2.64645C4.75979 2.55268 4.63261 2.5 4.5 2.5C4.36739 2.5 4.24021 2.55268 4.14645 2.64645C4.05268 2.74021 4 2.86739 4 3V5.5C4 5.63261 4.05268 5.75979 4.14645 5.85355C4.24021 5.94732 4.36739 6 4.5 6H7C7.13261 6 7.25979 5.94732 7.35355 5.85355C7.44732 5.75979 7.5 5.63261 7.5 5.5C7.5 5.36739 7.44732 5.24021 7.35355 5.14645C7.25979 5.05268 7.13261 5 7 5H5V3Z" fill="currentColor"/>
</svg>
