<svg width="16" height="16" viewBox="0 0 16 16" fill="none" xmlns="http://www.w3.org/2000/svg">
<path d="M13.6683 2.32804C12.9311 1.58732 12.0531 1.00001 11.0854 0.600331C10.1178 0.200649 9.07987 -0.00341053 8.03216 4.3116e-05C3.64221 4.3116e-05 0.0643217 3.56003 0.0643217 7.92802C0.0643217 9.32802 0.434171 10.688 1.12563 11.888L0 16L4.22111 14.896C5.38693 15.528 6.69749 15.864 8.03216 15.864C12.4221 15.864 16 12.304 16 7.93602C16 5.81603 15.1719 3.82403 13.6683 2.32804ZM8.03216 14.52C6.84221 14.52 5.67638 14.2 4.65528 13.6L4.41407 13.456L1.90553 14.112L2.57286 11.68L2.41206 11.432C1.75079 10.3817 1.39974 9.16744 1.39899 7.92802C1.39899 4.29603 4.37387 1.33604 8.02412 1.33604C9.79296 1.33604 11.4573 2.02404 12.7035 3.27203C13.3207 3.88312 13.8098 4.61006 14.1424 5.41069C14.475 6.21132 14.6446 7.06969 14.6412 7.93602C14.6573 11.568 11.6824 14.52 8.03216 14.52ZM11.6663 9.59202C11.4653 9.49602 10.4844 9.01602 10.3075 8.94402C10.1226 8.88002 9.99397 8.84802 9.85729 9.04002C9.7206 9.24002 9.34271 9.68802 9.23015 9.81602C9.11759 9.95202 8.99698 9.96802 8.79598 9.86402C8.59497 9.76802 7.95176 9.55202 7.19598 8.88002C6.601 8.35202 6.20703 7.70402 6.08643 7.50402C5.97387 7.30402 6.07035 7.20002 6.17487 7.09602C6.26332 7.00802 6.37588 6.86402 6.47236 6.75203C6.56884 6.64003 6.60905 6.55203 6.67337 6.42403C6.73769 6.28803 6.70553 6.17603 6.65729 6.08003C6.60904 5.98403 6.20703 5.00803 6.04623 4.60803C5.88543 4.22403 5.71658 4.27203 5.59598 4.26403H5.21005C5.07337 4.26403 4.86432 4.31203 4.6794 4.51203C4.50251 4.71203 3.98794 5.19203 3.98794 6.16803C3.98794 7.14402 4.70352 8.08802 4.8 8.21602C4.89648 8.35202 6.20703 10.352 8.201 11.208C8.67538 11.416 9.04523 11.536 9.33467 11.624C9.80904 11.776 10.2432 11.752 10.5889 11.704C10.9749 11.648 11.7709 11.224 11.9317 10.76C12.1005 10.296 12.1005 9.90402 12.0442 9.81602C11.9879 9.72802 11.8673 9.68802 11.6663 9.59202Z" fill="currentColor"/>
</svg>
