<svg width="22" height="22" viewBox="0 0 22 22" fill="none" xmlns="http://www.w3.org/2000/svg">
<path d="M3 15.5003C1.5 16.7603 1 20.5003 1 20.5003C1 20.5003 4.74 20.0003 6 18.5003C6.71 17.6603 6.7 16.3703 5.91 15.5903C5.52131 15.2193 5.00929 15.005 4.47223 14.9883C3.93516 14.9717 3.41088 15.1541 3 15.5003Z" stroke="black" stroke-width="2" stroke-linecap="round" stroke-linejoin="round"/>
<path d="M10.5 14.0002L7.5 11.0002C8.03214 9.61968 8.7022 8.29631 9.5 7.05025C10.6652 5.18723 12.2876 3.6533 14.213 2.59434C16.1384 1.53538 18.3027 0.986619 20.5 1.00025C20.5 3.72025 19.72 8.50025 14.5 12.0002C13.2369 12.799 11.8968 13.469 10.5 14.0002Z" stroke="black" stroke-width="2" stroke-linecap="round" stroke-linejoin="round"/>
<path d="M7.5 11.0005H2.5C2.5 11.0005 3.05 7.97051 4.5 7.00051C6.12 5.92051 9.5 7.00051 9.5 7.00051" stroke="black" stroke-width="2" stroke-linecap="round" stroke-linejoin="round"/>
<path d="M10.5 14.0005V19.0005C10.5 19.0005 13.53 18.4505 14.5 17.0005C15.58 15.3805 14.5 12.0005 14.5 12.0005" stroke="black" stroke-width="2" stroke-linecap="round" stroke-linejoin="round"/>
</svg>
