<svg width="24" height="24" viewBox="0 0 24 24" fill="none" xmlns="http://www.w3.org/2000/svg">
<path d="M19.414 14.4139C21 12.8279 22 11.4999 22 9.4999C22 8.3871 21.6624 7.30048 21.0319 6.38356C20.4013 5.46664 19.5075 4.76256 18.4684 4.3643C17.4293 3.96604 16.2938 3.89234 15.212 4.15294C14.1301 4.41354 13.1528 4.99618 12.409 5.8239M19.414 14.4139C19.2168 14.6112 18.9826 14.7676 18.7249 14.8744C18.4672 14.9812 18.191 15.0361 17.912 15.0361C17.633 15.0361 17.3568 14.9812 17.0991 14.8744C16.8414 14.7676 16.6072 14.6112 16.41 14.4139C16.6235 14.607 16.7956 14.8415 16.9157 15.1032C17.0358 15.3648 17.1015 15.6482 17.1087 15.936C17.116 16.2238 17.0646 16.5101 16.9578 16.7774C16.851 17.0448 16.6909 17.2876 16.4873 17.4912C16.2837 17.6948 16.0409 17.8549 15.7735 17.9617C15.5062 18.0685 15.2199 18.1199 14.9321 18.1126C14.6443 18.1054 14.3609 18.0397 14.0993 17.9196C13.8376 17.7995 13.6031 17.6274 13.41 17.4139C13.6074 17.6105 13.7641 17.8441 13.8712 18.1014C13.9782 18.3586 14.0335 18.6344 14.0339 18.9131C14.0342 19.1917 13.9797 19.4677 13.8733 19.7252C13.767 19.9827 13.6109 20.2167 13.414 20.4139C13.224 20.604 12.9976 20.7538 12.7484 20.8544C12.4991 20.9551 12.2322 21.0044 11.9635 20.9996C11.6947 20.9947 11.4297 20.9358 11.1843 20.8262C10.9389 20.7166 10.718 20.5587 10.535 20.3619L5 14.9999C3.5 13.4999 2 11.7999 2 9.4999C2.00022 8.38719 2.33794 7.30071 2.96856 6.38395C3.59917 5.46718 4.49303 4.76325 5.53208 4.36512C6.57112 3.96699 7.7065 3.89337 8.78826 4.154C9.87002 4.41463 10.8473 4.99724 11.591 5.8249C11.7022 5.92823 11.8484 5.98559 12.0002 5.9854C12.152 5.98522 12.2981 5.92751 12.409 5.8239M19.414 14.4139C19.7889 14.0388 19.9996 13.5302 19.9996 12.9999C19.9996 12.4696 19.7889 11.961 19.414 11.5859L17.533 9.7039C17.3092 9.48 17.0435 9.30239 16.751 9.18121C16.4585 9.06003 16.1451 8.99766 15.8285 8.99766C15.5119 8.99766 15.1985 9.06003 14.906 9.18121C14.6135 9.30239 14.3478 9.48 14.124 9.7039L12.414 11.4139C12.0389 11.7888 11.5303 11.9995 11 11.9995C10.4697 11.9995 9.96106 11.7888 9.586 11.4139C9.21106 11.0388 9.00043 10.5302 9.00043 9.9999C9.00043 9.46957 9.21106 8.96096 9.586 8.5859L12.409 5.8239" stroke="black" stroke-width="2" stroke-linecap="round" stroke-linejoin="round"/>
</svg>
