<svg width="22" height="16" viewBox="0 0 22 16" fill="none" xmlns="http://www.w3.org/2000/svg">
<path fill-rule="evenodd" clip-rule="evenodd" d="M5.97169 0.0915874C5.37581 0.250093 4.75519 0.598562 4.31687 1.02068C3.82063 1.49868 3.58869 1.91552 2.94569 3.48493L2.49819 4.57726L2.1775 4.72491C1.5475 5.01495 0.9835 5.66631 0.75925 6.36282C0.665 6.65564 0 11.1903 0 11.5404C0 11.887 0.120875 12.1274 0.387687 12.3118C0.5575 12.4291 0.687312 12.4551 1.20112 12.4751L1.8125 12.4989L1.81275 13.9314C1.81294 15.254 1.8225 15.3791 1.93719 15.5615C2.0055 15.6702 2.153 15.8132 2.26506 15.8795C2.45875 15.9941 2.58381 16 4.8125 16C7.04119 16 7.16625 15.9941 7.35994 15.8795C7.472 15.8132 7.6195 15.6702 7.68781 15.5615C7.80256 15.3791 7.81206 15.254 7.81225 13.9244L7.8125 12.4848H11H14.1875L14.1877 13.9244C14.1879 15.254 14.1974 15.3791 14.3122 15.5615C14.3805 15.6702 14.528 15.8132 14.6401 15.8795C14.8337 15.9941 14.9588 16 17.1875 16C19.4162 16 19.5413 15.9941 19.7349 15.8795C19.847 15.8132 19.9945 15.6702 20.0628 15.5615C20.1775 15.3791 20.1871 15.254 20.1873 13.9314L20.1875 12.4989L20.7989 12.4751C21.3127 12.4551 21.4425 12.4291 21.6123 12.3118C21.8791 12.1274 22 11.887 22 11.5404C22 11.1862 21.3342 6.65189 21.2397 6.36282C20.9558 5.49374 20.3214 4.8596 19.4517 4.57556L19.0478 4.4436L18.7119 3.35752C18.5272 2.76011 18.2883 2.10294 18.181 1.89703C17.7739 1.11554 17.0003 0.47491 16.0948 0.169173L15.5938 0L10.9375 0.00460667C7.219 0.00830411 6.21894 0.0257608 5.97169 0.0915874ZM15.5084 1.92079C15.7476 1.99492 15.9363 2.11403 16.1666 2.336C16.5013 2.65865 16.5113 2.68138 17.0271 4.28679L17.0709 4.42318H10.8479C7.42531 4.42318 4.625 4.40851 4.625 4.39057C4.625 4.37262 4.78412 3.977 4.97862 3.51142C5.43663 2.41492 5.73312 2.08203 6.4375 1.87345C6.52344 1.848 8.52412 1.82484 10.8834 1.82199C14.7734 1.81726 15.2044 1.82648 15.5084 1.92079ZM18.8926 6.32469C19.2629 6.47768 19.4986 6.87331 19.4996 7.34319L19.5 7.50521L18.2969 7.52503C17.154 7.54382 17.0835 7.55188 16.8897 7.68596C16.6148 7.87604 16.5 8.1128 16.5 8.48927C16.5 8.77925 16.5209 8.82362 16.773 9.06814L17.0461 9.3329H18.4228H19.7996L19.8716 9.86327C19.9112 10.155 19.9568 10.455 19.973 10.53L20.0024 10.6664H11H1.99762L2.027 10.53C2.04319 10.455 2.08881 10.155 2.12844 9.86327L2.20044 9.3329H3.57719H4.95394L5.227 9.06814C5.47906 8.82362 5.5 8.77925 5.5 8.48927C5.5 8.1128 5.38519 7.87604 5.11031 7.68596C4.9165 7.55188 4.846 7.54382 3.70312 7.52503L2.5 7.50521L2.50037 7.34319C2.50131 6.88161 2.73481 6.48187 3.09375 6.32718C3.37606 6.20547 18.5984 6.2031 18.8926 6.32469ZM5.9375 13.3334V14.182H4.8125H3.6875V13.3334V12.4848H4.8125H5.9375V13.3334ZM18.3125 13.3334V14.182H17.1875H16.0625V13.3334V12.4848H17.1875H18.3125V13.3334Z" fill="#D6FF31"/>
</svg>
