<svg width="31" height="10" viewBox="0 0 31 10" fill="none" xmlns="http://www.w3.org/2000/svg">
<path fill-rule="evenodd" clip-rule="evenodd" d="M3.70552 0.136434C2.25884 0.582074 1.1743 1.48242 0.503849 2.79456C-0.705672 5.16191 0.343608 8.20656 2.78336 9.40819C3.99702 10.006 3.86702 10 15.5008 10C27.1347 10 27.0047 10.006 28.2183 9.40819C28.9307 9.05746 29.7612 8.31247 30.2279 7.6058C31.1474 6.21351 31.256 4.27837 30.4978 2.79456C29.9566 1.73547 29.0908 0.905 28.0165 0.414627L27.1707 0.028591L15.6891 0.0051362C6.65674 -0.0132407 4.10042 0.0148083 3.70552 0.136434ZM6.65034 2.20214C7.45443 2.73906 7.65821 3.29835 7.65821 4.96811C7.65821 6.12356 7.61404 6.46837 7.41942 6.83409C6.46312 8.63092 3.93679 8.61121 2.91361 6.79903C2.59965 6.24277 2.61534 3.69031 2.93644 3.11156C3.25216 2.54236 3.50676 2.27722 3.95624 2.04993C4.83311 1.60635 5.84349 1.66341 6.65034 2.20214ZM13.0809 1.89723C13.1304 1.90013 13.3792 2.07895 13.6339 2.29439C14.3756 2.92187 14.5538 3.44343 14.557 4.99676C14.5593 6.17047 14.5233 6.40441 14.2677 6.87073C13.2972 8.64192 10.7823 8.60879 9.85327 6.81245C9.58524 6.29415 9.54056 6.04219 9.54119 5.0525C9.54207 3.52661 9.69202 3.04676 10.3622 2.42484C10.9771 1.85431 11.6697 1.65096 12.4893 1.80051C12.7653 1.85081 13.0316 1.89433 13.0809 1.89723ZM20.4551 2.24942C21.2297 2.85259 21.3905 3.25483 21.4428 4.72087C21.4794 5.74586 21.443 6.14496 21.2743 6.57077C20.4926 8.54302 17.7495 8.72413 16.7339 6.87073C16.4783 6.40441 16.4423 6.17047 16.4447 4.99676C16.4478 3.49155 16.6213 2.95173 17.2987 2.33864C18.0976 1.61565 19.5872 1.57358 20.4551 2.24942ZM27.0454 2.05114C27.4944 2.27674 27.7491 2.54163 28.0652 3.11156C28.3863 3.69031 28.402 6.24277 28.0881 6.79903C27.0649 8.61121 24.5386 8.63092 23.5823 6.83409C23.2255 6.16406 23.2361 3.7643 23.5988 3.04228C24.1893 1.86713 25.7732 1.41157 27.0454 2.05114ZM4.57825 3.52927C4.29705 3.80009 4.27019 3.92026 4.27019 4.90972C4.27019 5.50576 4.30683 6.08547 4.35176 6.19803C4.47736 6.51358 5.12912 6.73254 5.53568 6.59592C6.03184 6.42932 6.1858 5.95115 6.1341 4.73804C6.09483 3.81508 6.05543 3.66806 5.79342 3.46362C5.39062 3.14928 4.94767 3.17322 4.57825 3.52927ZM11.4445 3.51222C11.2041 3.75886 11.1717 3.92788 11.1717 4.93619C11.1717 6.32885 11.3204 6.61768 12.0378 6.61768C12.7235 6.61768 12.9681 6.30431 13.0315 5.34387C13.0963 4.36324 12.9817 3.76732 12.6705 3.46749C12.3383 3.14747 11.7804 3.1679 11.4445 3.51222ZM18.3312 3.46749C18.02 3.76732 17.9053 4.36324 17.9702 5.34387C18.0336 6.30431 18.2781 6.61768 18.9639 6.61768C19.6834 6.61768 19.83 6.3303 19.83 4.91927C19.83 3.86199 19.804 3.73468 19.5396 3.4953C19.1793 3.16923 18.6533 3.15714 18.3312 3.46749ZM25.2083 3.4635C24.942 3.67109 24.9077 3.80867 24.8696 4.824C24.8317 5.83388 24.8559 5.98863 25.0982 6.28557C25.4352 6.69832 26.1008 6.74172 26.4805 6.37588C26.6965 6.16781 26.7315 5.97292 26.7315 4.98008C26.7315 3.91591 26.7075 3.80287 26.4234 3.52927C26.054 3.17334 25.611 3.14928 25.2083 3.4635Z" fill="#D6FF31"/>
</svg>
