<svg width="18" height="18" viewBox="0 0 18 18" fill="none" xmlns="http://www.w3.org/2000/svg">
<path fill-rule="evenodd" clip-rule="evenodd" d="M2.44622 0.833176V1.66635H2.24649C1.74317 1.66635 0.973745 2.05389 0.611556 2.48986C0.375336 2.77414 0.124509 3.30449 0.0581919 3.65964C-0.0231771 4.09572 -0.0174563 15.6197 0.064357 16.0081C0.261309 16.9433 1.05306 17.735 1.99072 17.9341C2.39928 18.0209 15.5046 18.0225 15.9743 17.9358C16.465 17.8453 16.8732 17.6244 17.2481 17.2467C17.6255 16.8665 17.8483 16.4546 17.9372 15.9729C18.0177 15.536 18.0223 4.08961 17.9421 3.65964C17.8758 3.30449 17.625 2.77414 17.3888 2.48986C17.0266 2.05389 16.2572 1.66635 15.7538 1.66635H15.5541V0.833176V0H14.7225H13.8908L13.8755 0.819289L13.8601 1.63858L11.8467 1.65313L9.8333 1.66774V0.833842V0H9.00017H8.16704V0.833842V1.66774L6.15364 1.65313L4.14025 1.63858L4.12486 0.819289L4.10953 0H3.27785H2.44622V0.833176ZM16.3208 10.9701C16.3324 13.9917 16.3188 15.4464 16.277 15.6414C16.2052 15.977 16.0147 16.1817 15.693 16.2692C15.3799 16.3543 2.6475 16.3546 2.30953 16.2695C2.01738 16.1959 1.81082 15.99 1.72967 15.6915C1.6628 15.4456 1.6398 6.65718 1.70584 6.59114C1.72634 6.57064 5.01931 6.56026 9.02349 6.56798L16.3039 6.58209L16.3208 10.9701ZM9.77775 13.0531V13.8863H11.8328H13.8879V13.0531V12.2199H11.8328H9.77775V13.0531Z" fill="#D6FF31"/>
</svg>
