<svg width="17" height="18" viewBox="0 0 17 18" fill="none" xmlns="http://www.w3.org/2000/svg">
<path fill-rule="evenodd" clip-rule="evenodd" d="M1.34147 0.0996347C0.509443 0.419422 0.0135784 1.15278 0.0112755 2.06699C0.0104664 2.40435 0.0474368 2.61574 0.149572 2.85675C0.300068 3.21181 0.707428 3.69758 0.983275 3.85093L1.15443 3.94603V9.0103V14.0746L0.983275 14.1687C0.694793 14.3273 0.336416 14.7504 0.168306 15.1309C-0.265132 16.112 0.168493 17.3343 1.12593 17.8301C1.54567 18.0474 2.29442 18.0578 2.71802 17.8522C3.56959 17.4387 4.05338 16.412 3.83566 15.4804C3.73452 15.0476 3.39519 14.5245 3.05524 14.2771L2.77267 14.0716V11.9687V9.86587H5.26226H7.75186V11.9358V14.0058L7.48734 14.1998C7.0989 14.4847 6.90751 14.7228 6.72203 15.1517C6.5787 15.483 6.55946 15.6022 6.57882 16.0401C6.6049 16.6297 6.7516 16.9864 7.14408 17.4141C7.51124 17.8143 7.9242 17.9897 8.49873 17.9897C9.1159 17.9897 9.51343 17.8054 9.92627 17.3278C10.3163 16.8764 10.4494 16.4725 10.4184 15.8334C10.3849 15.1413 10.063 14.5624 9.51013 14.1998L9.30785 14.0672V11.9665V9.86587H11.7974H14.287L14.2859 11.9554L14.2848 14.045L13.9753 14.259C13.6122 14.51 13.2677 15.0273 13.1618 15.4804C12.9441 16.412 13.4279 17.4387 14.2794 17.8522C14.703 18.0578 15.4518 18.0474 15.8715 17.8301C16.8288 17.3344 17.2623 16.1126 16.8294 15.1309C16.6681 14.7652 16.2253 14.2423 16.0179 14.1727C15.9105 14.1366 15.9053 13.8975 15.9053 9.0103C15.9053 4.12313 15.9105 3.88397 16.0179 3.8479C16.2253 3.77833 16.6681 3.25538 16.8294 2.88966C17.3115 1.79656 16.7301 0.46299 15.609 0.0900918C14.464 -0.290704 13.2483 0.579743 13.1223 1.87054C13.0521 2.58962 13.4019 3.36516 13.9753 3.76155L14.2848 3.97558L14.2859 6.06515L14.287 8.15472H11.7974H9.30785V6.05409V3.9534L9.51013 3.82078C10.2709 3.32179 10.621 2.28733 10.3361 1.38016C10.195 0.930988 9.72007 0.386778 9.29354 0.185587C8.83539 -0.0304782 8.16208 -0.0304782 7.70393 0.185587C7.29234 0.379736 6.80593 0.928224 6.66926 1.35246C6.36397 2.29984 6.69733 3.25341 7.54958 3.87087L7.75186 4.01744V6.08608V8.15472H5.26226H2.77267V6.05186V3.94899L3.05524 3.74345C3.39519 3.49606 3.73452 2.97298 3.83566 2.54019C4.05357 1.60794 3.56324 0.568884 2.71908 0.174004C2.33519 -0.00553499 1.70383 -0.0396262 1.34147 0.0996347Z" fill="#D6FF31"/>
</svg>
