<svg width="23" height="17" viewBox="0 0 23 17" fill="none" xmlns="http://www.w3.org/2000/svg">
<path fill-rule="evenodd" clip-rule="evenodd" d="M6.73478 0.118933C6.3773 0.308588 6.24009 0.558491 6.24009 1.01981C6.24009 1.75259 6.60319 2.03955 7.53056 2.03968L8.10229 2.03982V3.50184V4.96386H6.90238C6.24251 4.96386 5.55068 4.99384 5.36505 5.0305C4.65218 5.17119 3.98917 5.86045 3.85418 6.60118C3.81877 6.79546 3.78982 6.9656 3.78982 6.97913C3.78982 6.99273 3.38157 7.00388 2.88263 7.00388H1.97551L1.94931 6.32571C1.92121 5.59708 1.85587 5.43191 1.48088 5.14052C1.22494 4.94162 0.685099 4.95073 0.404527 5.15868C-0.0151548 5.46965 6.96634e-05 5.29529 6.96634e-05 9.79749V13.8898L0.285477 14.1869C0.549061 14.4612 0.59689 14.484 0.909479 14.484C1.31459 14.484 1.57059 14.359 1.77374 14.0622C1.90017 13.8774 1.92827 13.7362 1.94983 13.1771L1.97551 12.5119H3.00802H4.04053L4.17265 12.7329C4.24531 12.8545 5.12244 13.7991 6.12182 14.832C7.78134 16.5471 7.97174 16.7226 8.31713 16.855C8.68931 16.9977 8.76524 17 13.1335 17C17.5024 17 17.5776 16.9978 17.9438 16.8551C18.3901 16.6813 18.8362 16.2446 19.0278 15.7937C19.1251 15.5648 19.1708 15.2776 19.1952 14.7433L19.2287 14.008H20.1266H21.0245L21.0502 14.6731C21.0717 15.2322 21.0998 15.3734 21.2263 15.5582C21.4294 15.855 21.6854 15.98 22.0905 15.98C22.4031 15.98 22.4509 15.9572 22.7145 15.683L22.9999 15.3859V11.2935C22.9999 6.79131 23.0152 6.96566 22.5955 6.6547C22.3149 6.44675 21.7751 6.43764 21.5191 6.63654C21.1441 6.92792 21.0788 7.0931 21.0507 7.82173L21.0245 8.4999H20.1254H19.2264L19.1987 7.49689C19.174 6.60315 19.1537 6.45783 19.0118 6.16278C18.81 5.74314 18.465 5.38301 18.0582 5.16745C17.7537 5.00608 17.6791 4.99786 16.3189 4.97467L14.8977 4.95053V3.49517V2.03982L15.4694 2.03968C16.3968 2.03955 16.7599 1.75259 16.7599 1.01981C16.7599 0.558491 16.6227 0.308588 16.2652 0.118933C16.0583 0.00911215 15.6944 0 11.5 0C7.3056 0 6.94171 0.00911215 6.73478 0.118933ZM12.9375 3.50184V4.96386H11.5H10.0625V3.50184V2.03982H11.5H12.9375V3.50184ZM17.2342 10.9989L17.251 14.96H13.1508H9.05065L7.40034 13.2434L5.75003 11.527V9.31074C5.75003 8.09182 5.76977 7.07399 5.79394 7.04883C5.81812 7.02374 8.39822 7.01095 11.5276 7.02054L17.2173 7.03788L17.2342 10.9989ZM3.78982 9.75791V10.4719H2.87505H1.96029V9.75791V9.04391H2.87505H3.78982V9.75791ZM21.0397 11.2539V11.9679H20.1249H19.2102V11.2539V10.5399H20.1249H21.0397V11.2539Z" fill="#D6FF31"/>
</svg>
