<svg width="20" height="17" viewBox="0 0 20 17" fill="none" xmlns="http://www.w3.org/2000/svg">
<path fill-rule="evenodd" clip-rule="evenodd" d="M9.12411 0.0376307C8.39508 0.105403 7.37642 0.331925 6.69434 0.577837C5.18116 1.12341 3.94028 1.9575 2.7442 3.23287C1.36108 4.7078 0.484253 6.49732 0.104262 8.62085C-0.0336263 9.39146 -0.0350175 11.23 0.101712 11.9965C0.390356 13.6147 0.950373 15.0079 1.81515 16.2593C2.2058 16.8245 2.42605 16.9931 2.7737 16.9926C3.52551 16.9916 3.90753 16.1669 3.45601 15.5197C2.54279 14.2108 2.00763 12.9085 1.81619 11.5288C1.72873 10.8984 1.72873 9.7438 1.81619 9.11345C2.32787 5.42615 5.19518 2.46292 8.78904 1.90732C13.0873 1.24285 17.2086 4.22022 18.0788 8.61841C18.2856 9.66398 18.2821 11.0781 18.0702 12.081C17.8338 13.2003 17.324 14.3893 16.7048 15.2658C16.5452 15.4916 16.3908 15.7601 16.3615 15.8624C16.178 16.5048 16.7972 17.1485 17.4264 16.9697C17.7017 16.8915 17.9063 16.6761 18.3415 16.0063C20.027 13.4128 20.4561 10.0979 19.4986 7.06974C19.2537 6.29525 18.6505 5.06838 18.1795 4.38714C17.3581 3.19875 16.104 2.03272 14.8842 1.32333C13.1757 0.329718 11.0604 -0.142418 9.12411 0.0376307ZM12.7052 3.84174C12.5936 3.94281 12.1337 4.69134 11.5945 5.64951L10.6742 7.28475L10.1716 7.25999C9.25707 7.215 8.58768 7.46527 7.93058 8.09795C6.71115 9.27208 6.68616 11.2498 7.87529 12.4764C9.05792 13.6962 10.9291 13.6962 12.1118 12.4764C13.1658 11.3892 13.2816 9.66595 12.3821 8.45309L12.1912 8.19567L13.0544 6.66328C13.5291 5.82043 13.9606 5.04493 14.0132 4.93993C14.3112 4.34448 13.8811 3.66921 13.2038 3.66921C12.9464 3.66921 12.8642 3.69767 12.7052 3.84174Z" fill="#D6FF31"/>
</svg>
