<svg width="0" height="0" class="hidden">
  <symbol fill="none" xmlns="http://www.w3.org/2000/svg" viewBox="0 0 9 13" id="ic_arr_hor">
    <path d="M0.325195 0.379639L7.3252 6.37964L0.325195 12.3796" stroke="currentColor"></path>
  </symbol>
  <symbol fill="none" xmlns="http://www.w3.org/2000/svg" viewBox="0 0 7 5" id="ic_arr_ver">
    <path d="M0.353516 0.353546L3.35352 3.35355L6.35352 0.353546" stroke="currentColor"></path>
  </symbol>
  <symbol fill="none" xmlns="http://www.w3.org/2000/svg" viewBox="0 0 9 9" id="ic_arrow_hor">
    <path d="M0 4.35355H8M8 4.35355L4 0.353546M8 4.35355L4 8.35355" stroke="currentColor"></path>
  </symbol>
  <symbol fill="none" xmlns="http://www.w3.org/2000/svg" viewBox="0 0 23 21" id="ic_arrow_hor_big">
    <path d="M0 10.207H21M21 10.207L11.5 0.707031M21 10.207L11.5 19.707" stroke="currentColor" stroke-width="2"></path>
  </symbol>
  <symbol fill="none" xmlns="http://www.w3.org/2000/svg" viewBox="0 0 9 6" id="ic_check">
    <path d="M0.285156 2.15564L3.36208 5.28064L8.28516 0.28064" stroke="currentColor" stroke-width="0.8"></path>
  </symbol>
  <symbol fill="none" xmlns="http://www.w3.org/2000/svg" viewBox="0 0 10 10" id="ic_close">
    <path d="M9.35352 0.353546L4.85352 4.85355M0.353516 9.35355L4.85352 4.85355M4.85352 4.85355L9.35352 9.35355L0.353516 0.353546" stroke="currentColor"></path>
  </symbol>
  <symbol fill="none" xmlns="http://www.w3.org/2000/svg" viewBox="0 0 9 7" id="ic_email">
    <path d="M1.5 0C1.10218 0 0.720644 0.1475 0.43934 0.41005C0.158035 0.672601 0 1.0287 0 1.4V1.5407L4.5 3.8024L9 1.5414V1.4C9 1.0287 8.84196 0.672601 8.56066 0.41005C8.27936 0.1475 7.89782 0 7.5 0H1.5ZM9 2.3359L4.67775 4.508C4.62312 4.53545 4.56204 4.54982 4.5 4.54982C4.43796 4.54982 4.37688 4.53545 4.32225 4.508L0 2.3359V5.6C0 5.9713 0.158035 6.3274 0.43934 6.58995C0.720644 6.8525 1.10218 7 1.5 7H7.5C7.89782 7 8.27936 6.8525 8.56066 6.58995C8.84196 6.3274 9 5.9713 9 5.6V2.3359Z" fill="currentColor"></path>
  </symbol>
  <symbol fill="none" xmlns="http://www.w3.org/2000/svg" viewBox="0 0 9 10" id="ic_location">
    <path d="M4.5 0C5.69347 0 6.83807 0.470181 7.68198 1.30711C8.52589 2.14404 9 3.27915 9 4.46275C9 5.98703 8.162 7.23461 7.279 8.12964C6.83784 8.57198 6.35646 8.97301 5.841 9.32764L5.628 9.47144L5.528 9.53739L5.3395 9.6564L5.1715 9.75805L4.9635 9.87805C4.82232 9.95797 4.66256 10 4.5 10C4.33744 10 4.17768 9.95797 4.0365 9.87805L3.8285 9.75805L3.5685 9.59937L3.4725 9.53739L3.2675 9.40202C2.71142 9.0289 2.19345 8.60274 1.721 8.12964C0.838 7.23412 0 5.98703 0 4.46275C0 3.27915 0.474106 2.14404 1.31802 1.30711C2.16193 0.470181 3.30653 0 4.5 0ZM4.5 2.97517C4.30302 2.97517 4.10796 3.01364 3.92597 3.0884C3.74399 3.16316 3.57863 3.27273 3.43934 3.41087C3.30005 3.549 3.18956 3.71299 3.11418 3.89348C3.0388 4.07396 3 4.2674 3 4.46275C3 4.6581 3.0388 4.85154 3.11418 5.03202C3.18956 5.2125 3.30005 5.37649 3.43934 5.51463C3.57863 5.65276 3.74399 5.76234 3.92597 5.8371C4.10796 5.91185 4.30302 5.95033 4.5 5.95033C4.89782 5.95033 5.27936 5.79361 5.56066 5.51463C5.84196 5.23565 6 4.85728 6 4.46275C6 4.06822 5.84196 3.68984 5.56066 3.41087C5.27936 3.13189 4.89782 2.97517 4.5 2.97517Z" fill="currentColor"></path>
  </symbol>
  <symbol fill="none" xmlns="http://www.w3.org/2000/svg" viewBox="0 0 10 9" id="ic_phone">
    <path d="M6.97598 5.7738L6.72321 6.01363C6.72321 6.01363 6.12155 6.58328 4.47989 5.02785C2.83823 3.47243 3.4399 2.90278 3.4399 2.90278L3.59878 2.75136C3.99156 2.37971 4.02878 1.78253 3.68601 1.34629L2.98601 0.455287C2.56157 -0.0847174 1.74213 -0.156189 1.25602 0.304403L0.383806 1.13029C0.143252 1.359 -0.0178577 1.65441 0.00158666 1.98265C0.0515863 2.82284 0.450472 4.62973 2.6749 6.73787C5.03433 8.97306 7.2482 9.062 8.1532 8.98153C8.43986 8.95612 8.68875 8.81741 8.88931 8.62682L9.67819 7.87929C10.2115 7.37475 10.0615 6.50916 9.3793 6.15604L8.3182 5.60598C7.87042 5.37462 7.32598 5.44239 6.97598 5.7738Z" fill="currentColor"></path>
  </symbol>
  <symbol fill="none" xmlns="http://www.w3.org/2000/svg" viewBox="0 0 17 17" id="ic_plus">
    <path d="M8.13173 16.2636V8.13184M8.13173 0.000108093V8.13184M8.13173 8.13184H16.2635L0 8.13184" stroke="currentColor" stroke-width="2"></path>
  </symbol>
  <symbol fill="none" xmlns="http://www.w3.org/2000/svg" viewBox="0 0 16 13" id="ic_tg">
    <path fill-rule="evenodd" clip-rule="evenodd" d="M14.3427 0.088937C14.5394 0.010188 14.7547 -0.0169719 14.9662 0.0102836C15.1777 0.0375392 15.3777 0.118214 15.5453 0.243911C15.7129 0.369609 15.842 0.535733 15.9192 0.724994C15.9964 0.914254 16.0188 1.11973 15.9842 1.32004L14.1787 11.736C14.0035 12.7407 12.8445 13.3169 11.8757 12.8164C11.0653 12.3977 9.8616 11.7526 8.77895 11.0795C8.23763 10.7426 6.57942 9.66368 6.78321 8.89594C6.95834 8.2395 9.74458 5.77275 11.3367 4.30618C11.9616 3.73 11.6766 3.39762 10.9387 3.92761C9.10614 5.24352 6.16387 7.24463 5.19107 7.80794C4.33291 8.30462 3.88552 8.38942 3.35056 8.30462C2.37458 8.15016 1.46945 7.91091 0.730701 7.61941C-0.267568 7.2257 -0.219008 5.9204 0.729905 5.54031L14.3427 0.088937Z" fill="currentColor"></path>
  </symbol>
  <symbol fill="none" xmlns="http://www.w3.org/2000/svg" viewBox="0 0 10 10" id="ic_time">
    <path fill-rule="evenodd" clip-rule="evenodd" d="M0 5C0 2.2385 2.2385 0 5 0C7.7615 0 10 2.2385 10 5C10 7.7615 7.7615 10 5 10C2.2385 10 0 7.7615 0 5ZM5 3C5 2.86739 4.94732 2.74021 4.85355 2.64645C4.75979 2.55268 4.63261 2.5 4.5 2.5C4.36739 2.5 4.24021 2.55268 4.14645 2.64645C4.05268 2.74021 4 2.86739 4 3V5.5C4 5.63261 4.05268 5.75979 4.14645 5.85355C4.24021 5.94732 4.36739 6 4.5 6H7C7.13261 6 7.25979 5.94732 7.35355 5.85355C7.44732 5.75979 7.5 5.63261 7.5 5.5C7.5 5.36739 7.44732 5.24021 7.35355 5.14645C7.25979 5.05268 7.13261 5 7 5H5V3Z" fill="currentColor"></path>
  </symbol>
  <symbol fill="none" xmlns="http://www.w3.org/2000/svg" viewBox="0 0 16 16" id="ic_whatsapp">
    <path d="M13.6683 2.32804C12.9311 1.58732 12.0531 1.00001 11.0854 0.600331C10.1178 0.200649 9.07987 -0.00341053 8.03216 4.3116e-05C3.64221 4.3116e-05 0.0643217 3.56003 0.0643217 7.92802C0.0643217 9.32802 0.434171 10.688 1.12563 11.888L0 16L4.22111 14.896C5.38693 15.528 6.69749 15.864 8.03216 15.864C12.4221 15.864 16 12.304 16 7.93602C16 5.81603 15.1719 3.82403 13.6683 2.32804ZM8.03216 14.52C6.84221 14.52 5.67638 14.2 4.65528 13.6L4.41407 13.456L1.90553 14.112L2.57286 11.68L2.41206 11.432C1.75079 10.3817 1.39974 9.16744 1.39899 7.92802C1.39899 4.29603 4.37387 1.33604 8.02412 1.33604C9.79296 1.33604 11.4573 2.02404 12.7035 3.27203C13.3207 3.88312 13.8098 4.61006 14.1424 5.41069C14.475 6.21132 14.6446 7.06969 14.6412 7.93602C14.6573 11.568 11.6824 14.52 8.03216 14.52ZM11.6663 9.59202C11.4653 9.49602 10.4844 9.01602 10.3075 8.94402C10.1226 8.88002 9.99397 8.84802 9.85729 9.04002C9.7206 9.24002 9.34271 9.68802 9.23015 9.81602C9.11759 9.95202 8.99698 9.96802 8.79598 9.86402C8.59497 9.76802 7.95176 9.55202 7.19598 8.88002C6.601 8.35202 6.20703 7.70402 6.08643 7.50402C5.97387 7.30402 6.07035 7.20002 6.17487 7.09602C6.26332 7.00802 6.37588 6.86402 6.47236 6.75203C6.56884 6.64003 6.60905 6.55203 6.67337 6.42403C6.73769 6.28803 6.70553 6.17603 6.65729 6.08003C6.60904 5.98403 6.20703 5.00803 6.04623 4.60803C5.88543 4.22403 5.71658 4.27203 5.59598 4.26403H5.21005C5.07337 4.26403 4.86432 4.31203 4.6794 4.51203C4.50251 4.71203 3.98794 5.19203 3.98794 6.16803C3.98794 7.14402 4.70352 8.08802 4.8 8.21602C4.89648 8.35202 6.20703 10.352 8.201 11.208C8.67538 11.416 9.04523 11.536 9.33467 11.624C9.80904 11.776 10.2432 11.752 10.5889 11.704C10.9749 11.648 11.7709 11.224 11.9317 10.76C12.1005 10.296 12.1005 9.90402 12.0442 9.81602C11.9879 9.72802 11.8673 9.68802 11.6663 9.59202Z" fill="currentColor"></path>
  </symbol>
</svg>